<svg width="32" height="32" viewBox="0 0 32 32" fill="none" xmlns="http://www.w3.org/2000/svg">
  <defs>
    <linearGradient id="g" x1="6" y1="3" x2="26" y2="29" gradientUnits="userSpaceOnUse">
      <stop stop-color="#0F4C81" />
      <stop offset="1" stop-color="#00C9A7" />
    </linearGradient>
  </defs>
  <rect width="32" height="32" rx="10" fill="#F8FAFC" />
  <path
    d="M4.75 17.25C7.6 8.55 14.25 4 21.75 4c2.9 0 5.35.7 7.5 2.1"
    stroke="#D4AF37"
    stroke-width="1.5"
    stroke-linecap="round"
  />
  <path
    d="M27.25 14.75C24.4 23.45 17.75 28 10.25 28c-2.9 0-5.35-.7-7.5-2.1"
    stroke="#D4AF37"
    stroke-width="1.5"
    stroke-linecap="round"
  />
  <path
    d="M18.8 8.1c-1.6-.75-3.7-.5-5 .7-1 .9-1.4 2.4-.7 3.7.7 1.3 2.2 1.8 3.6 2.2 1.5.4 3.1.9 3.7 2.3.6 1.3.1 2.9-1 3.9-1.6 1.4-4.2 1.6-6.2.6"
    stroke="#071B2E"
    stroke-width="2"
    stroke-linecap="round"
  />
  <path
    d="M18.2 23.7 23.9 10.2c.2-.5.9-.5 1.1 0l5.7 13.5"
    stroke="url(#g)"
    stroke-width="2"
    stroke-linecap="round"
    stroke-linejoin="round"
  />
  <path d="M20.2 19.3h7" stroke="url(#g)" stroke-width="2" stroke-linecap="round" />
</svg>
